<svg width="274" height="74" viewBox="0 0 274 74" fill="none" xmlns="http://www.w3.org/2000/svg">
<g filter="url(#filter0_d_33_51)">
<path d="M5 0H229C251.091 0 269 17.9086 269 40V63H45C22.9086 63 5 45.0914 5 23V0Z" fill="#BB865F"/>
<path d="M84.0977 27.1133C84.0977 26.7539 84.0547 26.4141 83.9688 26.0938C83.8828 25.7734 83.75 25.4922 83.5703 25.25C83.3906 25.0078 83.1602 24.8164 82.8789 24.6758C82.5977 24.5273 82.2578 24.4531 81.8594 24.4531C81.5859 24.4531 81.2891 24.5 80.9688 24.5938C80.6562 24.6875 80.3438 24.8086 80.0312 24.957C79.7266 25.1055 79.4375 25.2773 79.1641 25.4727C78.8906 25.668 78.6641 25.8633 78.4844 26.0586L78.3555 25.9414L78.625 24.7461C78.6328 24.707 78.6406 24.6875 78.6484 24.6875C78.6641 24.6875 78.6875 24.6797 78.7188 24.6641C79.0078 24.5625 79.2969 24.4531 79.5859 24.3359C79.875 24.2109 80.1641 24.1016 80.4531 24.0078C80.75 23.9062 81.0469 23.8242 81.3438 23.7617C81.6484 23.6914 81.957 23.6562 82.2695 23.6562C82.7383 23.6562 83.1875 23.75 83.6172 23.9375C84.0547 24.1172 84.4375 24.3633 84.7656 24.6758C85.1016 24.9883 85.3711 25.3555 85.5742 25.7773C85.7773 26.1914 85.8789 26.6367 85.8789 27.1133C85.8789 27.4727 85.8203 27.8125 85.7031 28.1328C85.5859 28.4531 85.4219 28.7461 85.2109 29.0117C85.0078 29.2773 84.7656 29.5117 84.4844 29.7148C84.2109 29.918 83.9102 30.082 83.582 30.207C84.0352 30.3398 84.457 30.5352 84.8477 30.793C85.2383 31.043 85.5781 31.3438 85.8672 31.6953C86.1641 32.0469 86.3945 32.4375 86.5586 32.8672C86.7305 33.2969 86.8164 33.7539 86.8164 34.2383C86.8164 34.8477 86.6836 35.4102 86.418 35.9258C86.1602 36.4414 85.8125 36.8867 85.375 37.2617C84.9453 37.6367 84.4531 37.9258 83.8984 38.1289C83.3516 38.3398 82.7852 38.4453 82.1992 38.4453C81.9023 38.4453 81.6055 38.418 81.3086 38.3633C81.0195 38.3164 80.7305 38.2578 80.4414 38.1875C80.1523 38.1172 79.8633 38.043 79.5742 37.9648C79.2852 37.8867 78.9961 37.8203 78.707 37.7656C78.6758 37.7578 78.6523 37.7539 78.6367 37.7539C78.6211 37.7461 78.6094 37.7227 78.6016 37.6836L78.2383 35.6328L78.332 35.5273L78.4023 35.5742C78.668 35.7695 78.9336 35.9883 79.1992 36.2305C79.4727 36.4648 79.75 36.6836 80.0312 36.8867C80.3203 37.0898 80.6211 37.2617 80.9336 37.4023C81.2539 37.543 81.5938 37.6133 81.9531 37.6133C82.4141 37.6133 82.832 37.5195 83.207 37.332C83.5898 37.1445 83.9141 36.8945 84.1797 36.582C84.4453 36.2695 84.6484 35.9102 84.7891 35.5039C84.9375 35.0977 85.0117 34.6758 85.0117 34.2383C85.0117 33.668 84.9219 33.1797 84.7422 32.7734C84.5625 32.3672 84.3164 32.0195 84.0039 31.7305C83.6914 31.4336 83.3242 31.1875 82.9023 30.9922C82.4805 30.7891 82.0273 30.6055 81.543 30.4414L81.5078 30.3477L81.543 30.2656C81.918 30.1484 82.2617 29.9961 82.5742 29.8086C82.8867 29.6211 83.1562 29.3945 83.3828 29.1289C83.6094 28.8633 83.7852 28.5625 83.9102 28.2266C84.0352 27.8906 84.0977 27.5195 84.0977 27.1133ZM87.7539 37.9766L87.7188 37.9531V37.8828C87.8281 37.7578 87.9414 37.6328 88.0586 37.5078C88.1758 37.375 88.2695 37.2305 88.3398 37.0742L94.2812 24.5703C94.2188 24.4531 94.1445 24.3438 94.0586 24.2422C93.9727 24.1406 93.8867 24.0391 93.8008 23.9375V23.9258L93.8359 23.8906H95.7344L95.7812 23.9258L101.078 36.1602C101.352 36.7773 101.715 37.3594 102.168 37.9062L102.191 37.9766C102.184 37.9766 102.172 37.9805 102.156 37.9883C102.141 37.9961 102.129 38 102.121 38C101.723 38 101.332 37.9961 100.949 37.9883C100.566 37.9727 100.176 37.9688 99.7773 37.9766C99.7617 37.7031 99.7383 37.4375 99.707 37.1797C99.6758 36.9141 99.6055 36.6562 99.4961 36.4062L96.2617 28.9414H92.9453L89.3242 36.6992C89.2617 36.832 89.2031 36.9727 89.1484 37.1211C89.1016 37.2617 89.0781 37.4102 89.0781 37.5664C89.0781 37.6289 89.082 37.6914 89.0898 37.7539C89.0977 37.8086 89.1094 37.8672 89.125 37.9297L89.1133 37.9766L89.0898 38L87.7539 37.9766ZM96.0156 28.3438C95.7891 27.8359 95.5469 27.332 95.2891 26.832C95.0312 26.3242 94.832 25.7969 94.6914 25.25L93.2031 28.3438H96.0156ZM112.809 23.8906L112.855 23.9141H112.879V23.9844C112.824 24.1016 112.781 24.2383 112.75 24.3945C112.727 24.543 112.707 24.6992 112.691 24.8633C112.676 25.0273 112.664 25.1875 112.656 25.3438C112.656 25.5 112.656 25.6445 112.656 25.7773V36.1133C112.656 36.2383 112.656 36.3828 112.656 36.5469C112.664 36.7031 112.672 36.8633 112.68 37.0273C112.695 37.1914 112.719 37.3516 112.75 37.5078C112.781 37.6641 112.824 37.7969 112.879 37.9062V37.9766L112.855 38H111.016C111.008 38 110.996 37.9961 110.98 37.9883C110.965 37.9805 110.953 37.9766 110.945 37.9766V37.9062C110.992 37.7969 111.031 37.6641 111.062 37.5078C111.102 37.3516 111.129 37.1914 111.145 37.0273C111.16 36.8633 111.172 36.6992 111.18 36.5352C111.188 36.3711 111.191 36.2305 111.191 36.1133V24.7227H105.285V36.1133C105.285 36.2383 105.285 36.3828 105.285 36.5469C105.285 36.7031 105.289 36.8633 105.297 37.0273C105.312 37.1914 105.336 37.3516 105.367 37.5078C105.398 37.6641 105.441 37.7969 105.496 37.9062V37.9766L105.484 38H103.656C103.648 38 103.633 37.9961 103.609 37.9883C103.594 37.9805 103.582 37.9766 103.574 37.9766V37.9062C103.621 37.7969 103.66 37.6641 103.691 37.5078C103.73 37.3516 103.758 37.1914 103.773 37.0273C103.797 36.8633 103.812 36.6992 103.82 36.5352C103.828 36.3711 103.832 36.2305 103.832 36.1133V25.7773C103.832 25.6602 103.828 25.5234 103.82 25.3672C103.812 25.2031 103.797 25.0352 103.773 24.8633C103.758 24.6914 103.73 24.5312 103.691 24.3828C103.66 24.2266 103.621 24.0938 103.574 23.9844V23.9141C103.582 23.9141 103.594 23.9102 103.609 23.9023C103.633 23.8945 103.648 23.8906 103.656 23.8906H112.809ZM126.262 37.9062V37.9766L126.203 38H124.41L124.387 37.9766L124.363 37.9062C124.441 37.6797 124.504 37.4492 124.551 37.2148C124.598 36.9805 124.621 36.7422 124.621 36.5V26.0234L115.188 38.5625L115.129 38.5859L115.07 38.5039V25.1914C115.07 24.9727 115.043 24.7617 114.988 24.5586C114.941 24.3477 114.918 24.1328 114.918 23.9141C114.949 23.8984 114.977 23.8906 115 23.8906H116.758C116.766 23.8906 116.777 23.8945 116.793 23.9023C116.809 23.9102 116.82 23.9141 116.828 23.9141V23.9844C116.719 24.1953 116.641 24.418 116.594 24.6523C116.547 24.8867 116.523 25.125 116.523 25.3672V35.6445L124.68 24.6641C124.844 24.4531 124.926 24.2188 124.926 23.9609L124.973 23.8906H126.367L126.438 23.9258C126.383 24.0586 126.312 24.1797 126.227 24.2891C126.148 24.3984 126.07 24.5117 125.992 24.6289L126.016 36.5C126.016 36.7422 126.031 36.9805 126.062 37.2148C126.102 37.4492 126.168 37.6797 126.262 37.9062ZM135.426 24.3359C134.848 24.3359 134.297 24.4219 133.773 24.5938C133.258 24.7656 132.781 25.0039 132.344 25.3086C131.906 25.6133 131.512 25.9727 131.16 26.3867C130.809 26.8008 130.508 27.25 130.258 27.7344C130.016 28.2188 129.828 28.7305 129.695 29.2695C129.562 29.8086 129.496 30.3516 129.496 30.8984C129.496 31.4297 129.559 31.9609 129.684 32.4922C129.816 33.0156 130.004 33.5234 130.246 34.0156C130.488 34.5078 130.781 34.9648 131.125 35.3867C131.469 35.8086 131.852 36.1758 132.273 36.4883C132.703 36.8008 133.172 37.0469 133.68 37.2266C134.188 37.4062 134.723 37.4961 135.285 37.4961C135.59 37.4961 135.906 37.4648 136.234 37.4023C136.57 37.332 136.898 37.2383 137.219 37.1211C137.539 36.9961 137.844 36.8516 138.133 36.6875C138.43 36.5234 138.691 36.3398 138.918 36.1367C139.09 35.9883 139.254 35.8359 139.41 35.6797C139.566 35.5156 139.734 35.3672 139.914 35.2344L139.961 35.3164C139.961 35.3633 139.961 35.4141 139.961 35.4688C139.969 35.5156 139.973 35.5625 139.973 35.6094C139.973 35.8281 139.953 36.0391 139.914 36.2422C139.875 36.4375 139.801 36.6289 139.691 36.8164C139.348 36.8398 139.012 36.9297 138.684 37.0859C138.363 37.2344 138.027 37.3945 137.676 37.5664C137.324 37.7383 136.941 37.8945 136.527 38.0352C136.121 38.1758 135.66 38.2461 135.145 38.2461C134.074 38.2461 133.09 38.0508 132.191 37.6602C131.293 37.2617 130.52 36.7227 129.871 36.043C129.223 35.3633 128.715 34.5625 128.348 33.6406C127.988 32.7188 127.809 31.7305 127.809 30.6758C127.809 29.6445 128 28.6992 128.383 27.8398C128.773 26.9727 129.301 26.2305 129.965 25.6133C130.629 24.9961 131.406 24.5156 132.297 24.1719C133.188 23.8281 134.137 23.6562 135.145 23.6562C135.254 23.6562 135.418 23.6641 135.637 23.6797C135.855 23.6953 136.098 23.7188 136.363 23.75C136.637 23.7734 136.922 23.8047 137.219 23.8438C137.516 23.8828 137.793 23.9258 138.051 23.9727C138.309 24.0117 138.535 24.0547 138.73 24.1016C138.934 24.1484 139.07 24.1953 139.141 24.2422L139.234 25.7188L139.211 25.7773C139.086 25.6914 138.965 25.6055 138.848 25.5195C138.73 25.4336 138.609 25.3477 138.484 25.2617C138.031 24.9648 137.543 24.7383 137.02 24.582C136.504 24.418 135.973 24.3359 135.426 24.3359ZM140.676 37.9766L140.641 37.9531V37.8828C140.75 37.7578 140.863 37.6328 140.98 37.5078C141.098 37.375 141.191 37.2305 141.262 37.0742L147.203 24.5703C147.141 24.4531 147.066 24.3438 146.98 24.2422C146.895 24.1406 146.809 24.0391 146.723 23.9375V23.9258L146.758 23.8906H148.656L148.703 23.9258L154 36.1602C154.273 36.7773 154.637 37.3594 155.09 37.9062L155.113 37.9766C155.105 37.9766 155.094 37.9805 155.078 37.9883C155.062 37.9961 155.051 38 155.043 38C154.645 38 154.254 37.9961 153.871 37.9883C153.488 37.9727 153.098 37.9688 152.699 37.9766C152.684 37.7031 152.66 37.4375 152.629 37.1797C152.598 36.9141 152.527 36.6562 152.418 36.4062L149.184 28.9414H145.867L142.246 36.6992C142.184 36.832 142.125 36.9727 142.07 37.1211C142.023 37.2617 142 37.4102 142 37.5664C142 37.6289 142.004 37.6914 142.012 37.7539C142.02 37.8086 142.031 37.8672 142.047 37.9297L142.035 37.9766L142.012 38L140.676 37.9766ZM148.938 28.3438C148.711 27.8359 148.469 27.332 148.211 26.832C147.953 26.3242 147.754 25.7969 147.613 25.25L146.125 28.3438H148.938ZM161.254 23.8906L161.336 23.9258L161.594 24.957L161.57 25.0391L161.5 25.0508C161.242 24.9648 160.977 24.8945 160.703 24.8398C160.43 24.7773 160.156 24.7461 159.883 24.7461H157.562V36.1133C157.562 36.2383 157.562 36.3828 157.562 36.5469C157.57 36.7109 157.578 36.875 157.586 37.0391C157.602 37.2031 157.625 37.3633 157.656 37.5195C157.688 37.668 157.73 37.7969 157.785 37.9062V37.9766L157.762 38H155.934C155.926 38 155.91 37.9961 155.887 37.9883C155.871 37.9805 155.859 37.9766 155.852 37.9766V37.9062C155.898 37.7969 155.938 37.6641 155.969 37.5078C156 37.3516 156.027 37.1914 156.051 37.0273C156.074 36.8633 156.09 36.6992 156.098 36.5352C156.105 36.3711 156.109 36.2305 156.109 36.1133V24.7461H153.824C153.551 24.7461 153.277 24.7773 153.004 24.8398C152.738 24.8945 152.477 24.9648 152.219 25.0508L152.137 25.0391L152.125 24.957L152.371 23.9258L152.453 23.8906H161.254ZM164.242 31.4727C164.594 31.3242 164.949 31.2305 165.309 31.1914C165.676 31.1445 166.047 31.1211 166.422 31.1211C166.961 31.1211 167.496 31.2031 168.027 31.3672C168.559 31.5312 169.035 31.7734 169.457 32.0938C169.879 32.4062 170.223 32.793 170.488 33.2539C170.754 33.707 170.887 34.2305 170.887 34.8242C170.887 35.457 170.75 35.9922 170.477 36.4297C170.203 36.8594 169.848 37.2109 169.41 37.4844C168.98 37.75 168.492 37.9414 167.945 38.0586C167.406 38.1836 166.867 38.2461 166.328 38.2461C165.695 38.2461 165.07 38.2031 164.453 38.1172C163.844 38.0391 163.223 38 162.59 38L162.52 37.9531V37.8828C162.566 37.7578 162.605 37.6211 162.637 37.4727C162.676 37.3242 162.703 37.1719 162.719 37.0156C162.734 36.8594 162.746 36.7031 162.754 36.5469C162.762 36.3906 162.766 36.2461 162.766 36.1133V25.7773C162.766 25.4961 162.75 25.1953 162.719 24.875C162.688 24.5469 162.621 24.25 162.52 23.9844V23.9141C162.527 23.9141 162.539 23.9102 162.555 23.9023C162.57 23.8945 162.582 23.8906 162.59 23.8906H164.383C164.391 23.8906 164.402 23.8945 164.418 23.9023C164.434 23.9102 164.445 23.9141 164.453 23.9141V23.9844C164.344 24.2031 164.281 24.4414 164.266 24.6992C164.25 24.9492 164.242 25.1914 164.242 25.4258V31.4727ZM164.242 37.1914C164.547 37.3086 164.859 37.3945 165.18 37.4492C165.5 37.5039 165.824 37.5312 166.152 37.5312C166.574 37.5312 166.965 37.4727 167.324 37.3555C167.691 37.2383 168.008 37.0664 168.273 36.8398C168.547 36.6055 168.758 36.3203 168.906 35.9844C169.062 35.6484 169.141 35.2578 169.141 34.8125C169.141 33.8438 168.867 33.1055 168.32 32.5977C167.773 32.082 167.023 31.8242 166.07 31.8242C165.75 31.8242 165.434 31.8516 165.121 31.9062C164.816 31.9531 164.523 32.0547 164.242 32.2109V37.1914ZM179.324 24.3359C178.746 24.3359 178.195 24.4219 177.672 24.5938C177.156 24.7656 176.68 25.0039 176.242 25.3086C175.805 25.6133 175.41 25.9727 175.059 26.3867C174.707 26.8008 174.406 27.25 174.156 27.7344C173.914 28.2188 173.727 28.7305 173.594 29.2695C173.461 29.8086 173.395 30.3516 173.395 30.8984C173.395 31.4297 173.457 31.9609 173.582 32.4922C173.715 33.0156 173.902 33.5234 174.145 34.0156C174.387 34.5078 174.68 34.9648 175.023 35.3867C175.367 35.8086 175.75 36.1758 176.172 36.4883C176.602 36.8008 177.07 37.0469 177.578 37.2266C178.086 37.4062 178.621 37.4961 179.184 37.4961C179.488 37.4961 179.805 37.4648 180.133 37.4023C180.469 37.332 180.797 37.2383 181.117 37.1211C181.438 36.9961 181.742 36.8516 182.031 36.6875C182.328 36.5234 182.59 36.3398 182.816 36.1367C182.988 35.9883 183.152 35.8359 183.309 35.6797C183.465 35.5156 183.633 35.3672 183.812 35.2344L183.859 35.3164C183.859 35.3633 183.859 35.4141 183.859 35.4688C183.867 35.5156 183.871 35.5625 183.871 35.6094C183.871 35.8281 183.852 36.0391 183.812 36.2422C183.773 36.4375 183.699 36.6289 183.59 36.8164C183.246 36.8398 182.91 36.9297 182.582 37.0859C182.262 37.2344 181.926 37.3945 181.574 37.5664C181.223 37.7383 180.84 37.8945 180.426 38.0352C180.02 38.1758 179.559 38.2461 179.043 38.2461C177.973 38.2461 176.988 38.0508 176.09 37.6602C175.191 37.2617 174.418 36.7227 173.77 36.043C173.121 35.3633 172.613 34.5625 172.246 33.6406C171.887 32.7188 171.707 31.7305 171.707 30.6758C171.707 29.6445 171.898 28.6992 172.281 27.8398C172.672 26.9727 173.199 26.2305 173.863 25.6133C174.527 24.9961 175.305 24.5156 176.195 24.1719C177.086 23.8281 178.035 23.6562 179.043 23.6562C179.152 23.6562 179.316 23.6641 179.535 23.6797C179.754 23.6953 179.996 23.7188 180.262 23.75C180.535 23.7734 180.82 23.8047 181.117 23.8438C181.414 23.8828 181.691 23.9258 181.949 23.9727C182.207 24.0117 182.434 24.0547 182.629 24.1016C182.832 24.1484 182.969 24.1953 183.039 24.2422L183.133 25.7188L183.109 25.7773C182.984 25.6914 182.863 25.6055 182.746 25.5195C182.629 25.4336 182.508 25.3477 182.383 25.2617C181.93 24.9648 181.441 24.7383 180.918 24.582C180.402 24.418 179.871 24.3359 179.324 24.3359ZM187.914 37.9297L187.832 38H185.336L185.254 37.9531L185.277 37.8828L191.91 30.4414C191.355 30.3867 190.824 30.2891 190.316 30.1484C189.816 30 189.371 29.7891 188.98 29.5156C188.59 29.2422 188.277 28.8906 188.043 28.4609C187.816 28.0234 187.703 27.4844 187.703 26.8438C187.703 26.1719 187.832 25.6289 188.09 25.2148C188.355 24.8008 188.703 24.4805 189.133 24.2539C189.562 24.0195 190.043 23.8633 190.574 23.7852C191.113 23.6992 191.66 23.6562 192.215 23.6562C192.551 23.6562 192.887 23.6758 193.223 23.7148C193.566 23.7461 193.902 23.7852 194.23 23.832C194.566 23.8789 194.902 23.9219 195.238 23.9609C195.574 23.9922 195.914 24.0078 196.258 24.0078L196.34 24.043V24.125C196.184 24.3984 196.078 24.6953 196.023 25.0156C195.969 25.3281 195.941 25.6445 195.941 25.9648V36.9102C195.941 37.0898 195.961 37.2617 196 37.4258C196.039 37.5898 196.102 37.75 196.188 37.9062V37.9766C196.18 37.9766 196.168 37.9805 196.152 37.9883C196.137 37.9961 196.125 38 196.117 38H194.336C194.328 38 194.312 37.9961 194.289 37.9883C194.273 37.9805 194.262 37.9766 194.254 37.9766V37.9062C194.348 37.75 194.406 37.5898 194.43 37.4258C194.453 37.2539 194.465 37.082 194.465 36.9102V30.0312L188.418 36.6406C188.262 36.8203 188.137 37.0234 188.043 37.25C187.957 37.4688 187.914 37.6953 187.914 37.9297ZM194.465 24.8164C194.137 24.6602 193.797 24.5273 193.445 24.418C193.102 24.3008 192.742 24.2422 192.367 24.2422C191.922 24.2422 191.516 24.2969 191.148 24.4062C190.789 24.5156 190.48 24.6836 190.223 24.9102C189.965 25.1289 189.766 25.4102 189.625 25.7539C189.484 26.0977 189.414 26.5 189.414 26.9609C189.414 27.4453 189.516 27.8711 189.719 28.2383C189.93 28.5977 190.199 28.8984 190.527 29.1406C190.863 29.3828 191.242 29.5664 191.664 29.6914C192.086 29.8164 192.516 29.8789 192.953 29.8789C193.203 29.8789 193.453 29.8633 193.703 29.832C193.961 29.8008 194.215 29.7578 194.465 29.7031V24.8164Z" fill="#F4F4F4"/>
</g>
<defs>
<filter id="filter0_d_33_51" x="0" y="0" width="274" height="74" filterUnits="userSpaceOnUse" color-interpolation-filters="sRGB">
<feFlood flood-opacity="0" result="BackgroundImageFix"/>
<feColorMatrix in="SourceAlpha" type="matrix" values="0 0 0 0 0 0 0 0 0 0 0 0 0 0 0 0 0 0 127 0" result="hardAlpha"/>
<feOffset dy="6"/>
<feGaussianBlur stdDeviation="2.5"/>
<feComposite in2="hardAlpha" operator="out"/>
<feColorMatrix type="matrix" values="0 0 0 0 0.901961 0 0 0 0 0.819608 0 0 0 0 0.74902 0 0 0 1 0"/>
<feBlend mode="normal" in2="BackgroundImageFix" result="effect1_dropShadow_33_51"/>
<feBlend mode="normal" in="SourceGraphic" in2="effect1_dropShadow_33_51" result="shape"/>
</filter>
</defs>
</svg>
